<svg width="32" height="32" viewBox="0 0 32 32" fill="none" xmlns="http://www.w3.org/2000/svg">
    <rect x="2" y="10" width="22" height="16" rx="4" fill="#E6A15C"/>
    <path d="M24 13C26.2091 13 28 14.7909 28 17C28 19.2091 26.2091 21 24 21V13Z" stroke="#E6A15C" stroke-width="2"/>
    <path d="M6 6C6 6 8 3 11 3C14 3 14 6 14 6" stroke="#f8f9fa" stroke-width="2" stroke-linecap="round"/>
    <path d="M11 7C11 7 12.5 4.5 14.5 4.5C16.5 4.5 16.5 7 16.5 7" stroke="#f8f9fa" stroke-width="2" stroke-linecap="round"/>
    <circle cx="9" cy="15" r="1.5" fill="#0D0D0E"/>
    <circle cx="17" cy="15" r="1.5" fill="#0D0D0E"/>
    <path d="M11 19C12.5 19 13 18 13 18" stroke="#0D0D0E" stroke-width="1.5" stroke-linecap="round"/>
</svg>
